# xmcd CD database file
#
# Track frame offsets:
#	150
#	15878
#	28477
#	40319
#	56882
#	72389
#	90546
#	107518
#	118594
#	138635
#	153940
#	170439
#	184090
#	203482
#	222911
#	241448
#	256121
#	289848
#	313886
#
# Disc length: 4780 seconds
#
# Revision: 1
# Processed by: cddbd v1.5.2PL0 Copyright (c) Steve Scherf et al.
# Submitted via: CDex 1.51
#
DISCID=1212aa13
DTITLE=Tinkabelle - Highway
DYEAR=2011
DGENRE=Country, Country-Pop
TTITLE0=Fino a tre (Turn Around) (with Luca Napolitano)
TTITLE1=The Man I Need
TTITLE2=Hold On
TTITLE3=Mandy Lane
TTITLE4=Get Up
TTITLE5=Highway (with Pee Wirz)
TTITLE6=I Don't Know
TTITLE7=Love Ain't Paying Bills
TTITLE8=Amsterdam
TTITLE9=Brand New Car
TTITLE10=The Day
TTITLE11=How Did You Know
TTITLE12=Everything
TTITLE13=You Get Me (with Seal)
TTITLE14=Highway (with Luca Napolitano)
TTITLE15=Strawberries And Cream
TTITLE16=The Man I Need (Slin Project Remix)
TTITLE17=The Man I Need (Acoustic Version)
TTITLE18=The Man I Need and Hold On (Video Clip)
EXTD=YEAR: 2011
EXTT0=
EXTT1=
EXTT2=
EXTT3=
EXTT4=
EXTT5=
EXTT6=
EXTT7=
EXTT8=
EXTT9=
EXTT10=
EXTT11=
EXTT12=
EXTT13=
EXTT14=
EXTT15=
EXTT16=
EXTT17=
EXTT18=
PLAYORDER=
